<svg width="38" height="37" viewBox="0 0 38 37" fill="none" xmlns="http://www.w3.org/2000/svg">
<g filter="url(#filter0_d_641_1884)">
<path d="M5.5083 13.8776C5.5083 8.7655 5.5083 6.20946 7.12865 4.62132C8.749 3.0332 11.3569 3.0332 16.5727 3.0332H22.1049C27.3207 3.0332 29.9287 3.0332 31.549 4.62132C33.1694 6.20946 33.1694 8.7655 33.1694 13.8776V16.5887C33.1694 21.7008 33.1694 24.2569 31.549 25.8449C29.9287 27.4331 27.3207 27.4331 22.1049 27.4331H16.5727C11.3569 27.4331 8.749 27.4331 7.12865 25.8449C5.5083 24.2569 5.5083 21.7008 5.5083 16.5887V13.8776Z" stroke="#8E8E8F" stroke-width="1.5"/>
<path d="M12.4233 3.03333V1" stroke="#8E8E8F" stroke-width="1.5" stroke-linecap="round"/>
<path d="M26.2539 3.03333V1" stroke="#8E8E8F" stroke-width="1.5" stroke-linecap="round"/>
<path d="M6.19971 9.81104H32.4777" stroke="#8E8E8F" stroke-width="1.5" stroke-linecap="round"/>
</g>
<defs>
<filter id="filter0_d_641_1884" x="0.758301" y="0.25" width="37.1611" height="35.9331" filterUnits="userSpaceOnUse" color-interpolation-filters="sRGB">
<feFlood flood-opacity="0" result="BackgroundImageFix"/>
<feColorMatrix in="SourceAlpha" type="matrix" values="0 0 0 0 0 0 0 0 0 0 0 0 0 0 0 0 0 0 127 0" result="hardAlpha"/>
<feOffset dy="4"/>
<feGaussianBlur stdDeviation="2"/>
<feComposite in2="hardAlpha" operator="out"/>
<feColorMatrix type="matrix" values="0 0 0 0 0 0 0 0 0 0 0 0 0 0 0 0 0 0 0.25 0"/>
<feBlend mode="normal" in2="BackgroundImageFix" result="effect1_dropShadow_641_1884"/>
<feBlend mode="normal" in="SourceGraphic" in2="effect1_dropShadow_641_1884" result="shape"/>
</filter>
</defs>
</svg>
