<svg width="33" height="32" viewBox="0 0 33 32" fill="none" xmlns="http://www.w3.org/2000/svg">
<rect y="-0.00585938" width="33" height="31.9939" rx="8" fill="#EAEFFE"/>
<path d="M24.9536 9.98725C24.8724 9.58224 24.6912 9.21161 24.4381 8.90543C24.3847 8.83872 24.329 8.77897 24.2685 8.71923C23.8201 8.27269 23.1908 7.99414 22.5032 7.99414H9.49684C8.80929 7.99414 8.18217 8.27269 7.73164 8.71923C7.67135 8.77897 7.61559 8.83872 7.56208 8.90543C7.30885 9.21158 7.12762 9.58224 7.04873 9.98725C7.01631 10.1436 7 10.3051 7 10.4684V19.5201C7 19.8674 7.07432 20.2012 7.20686 20.5026C7.3298 20.7904 7.51107 21.0507 7.7316 21.2691C7.7875 21.3243 7.84301 21.3751 7.90359 21.4256C8.33552 21.7801 8.89306 21.9941 9.49684 21.9941H22.5032C23.1072 21.9941 23.6672 21.7801 24.0966 21.4234C24.157 21.3751 24.2128 21.3243 24.2685 21.2691C24.489 21.0507 24.6702 20.7904 24.7957 20.5026V20.5004C24.9282 20.1989 25 19.8674 25 19.5201V10.4684C25 10.3051 24.984 10.1436 24.9536 9.98725ZM8.63509 9.61436C8.85815 9.39356 9.15772 9.25989 9.49684 9.25989H22.5032C22.8423 9.25989 23.1445 9.39356 23.365 9.61436C23.4044 9.65369 23.4416 9.69751 23.4744 9.74106L16.6573 15.6283C16.4693 15.7916 16.237 15.8722 16 15.8722C15.7654 15.8722 15.5333 15.7916 15.3428 15.6283L8.52832 9.73855C8.55848 9.695 8.59564 9.65369 8.63509 9.61436ZM8.27737 19.5201V11.0484L13.2106 15.3129L8.27987 19.5729C8.27737 19.5567 8.27737 19.5385 8.27737 19.5201ZM22.5032 20.7281H9.49684C9.27602 20.7281 9.06941 20.6706 8.89306 20.5696L14.0954 16.0771L14.5811 16.4957C14.9876 16.8457 15.4962 17.023 16 17.023C16.5065 17.023 17.0151 16.8457 17.4215 16.4957L17.9069 16.0771L23.1072 20.5696C22.9306 20.6706 22.724 20.7281 22.5032 20.7281ZM23.7227 19.5201C23.7227 19.5385 23.7227 19.5567 23.7203 19.5729L18.7895 15.3154L23.7227 11.0506V19.5201Z" fill="#002D9E"/>
</svg>
