<svg width="24" height="24" viewBox="0 0 24 24" fill="none" xmlns="http://www.w3.org/2000/svg">
<circle cx="12" cy="12" r="11.75" fill="white" stroke="#282773" stroke-width="0.5"/>
<path fill-rule="evenodd" clip-rule="evenodd" d="M9.47368 6.9475C9.47368 6.59869 9.7347 6.31592 10.0567 6.31592H13.9433C14.2653 6.31592 14.5263 6.59869 14.5263 6.9475C14.5263 7.29631 14.2653 7.57908 13.9433 7.57908H10.0567C9.7347 7.57908 9.47368 7.29631 9.47368 6.9475Z" fill="#1C274C"/>
<path fill-rule="evenodd" clip-rule="evenodd" d="M10.5965 17.6844H13.4035C15.3747 17.6844 16.3603 17.6844 17.0683 17.2282C17.3747 17.0307 17.6379 16.7769 17.8427 16.4814C18.3158 15.7987 18.3158 14.8483 18.3158 12.9475C18.3158 11.0467 18.3157 10.0964 17.8426 9.41368C17.6378 9.11812 17.3747 8.86436 17.0682 8.66687C16.3602 8.21069 15.3746 8.21069 13.4034 8.21069H10.5964C8.62521 8.21069 7.63962 8.21069 6.93162 8.66687C6.62512 8.86436 6.36196 9.11812 6.15717 9.41368C5.6842 10.0963 5.6842 11.0462 5.6842 12.9462V12.9475C5.6842 14.8483 5.6842 15.7987 6.15727 16.4814C6.36207 16.7769 6.62523 17.0307 6.93172 17.2282C7.63972 17.6844 8.62531 17.6844 10.5965 17.6844ZM9.36841 12.9475C9.36841 11.5459 10.5466 10.4098 12 10.4098C13.4534 10.4098 14.6316 11.5459 14.6316 12.9475C14.6316 14.3489 13.4534 15.4851 12 15.4851C10.5466 15.4851 9.36841 14.3489 9.36841 12.9475ZM10.421 12.9475C10.421 12.1066 11.128 11.4249 12 11.4249C12.872 11.4249 13.5789 12.1066 13.5789 12.9475C13.5789 13.7884 12.872 14.47 12 14.47C11.128 14.47 10.421 13.7884 10.421 12.9475ZM15.8596 10.4098C15.569 10.4098 15.3333 10.6371 15.3333 10.9173C15.3333 11.1977 15.569 11.4249 15.8596 11.4249H16.2105C16.5012 11.4249 16.7368 11.1977 16.7368 10.9173C16.7368 10.6371 16.5012 10.4098 16.2105 10.4098H15.8596Z" fill="#1C274C"/>
</svg>
