<svg width="12" height="12" viewBox="0 0 12 12" fill="none" xmlns="http://www.w3.org/2000/svg">
<path d="M0.229219 10.6641C-0.0764063 10.9697 -0.0764063 11.4651 0.229219 11.7708C0.534844 12.0764 1.03037 12.0764 1.336 11.7708L0.229219 10.6641ZM6.55337 6.55337C6.859 6.24773 6.859 5.75229 6.55337 5.44665C6.24773 5.14102 5.75229 5.14102 5.44665 5.44665L6.55337 6.55337ZM5.44665 5.44665C5.14102 5.75229 5.14102 6.24773 5.44665 6.55337C5.75229 6.859 6.24773 6.859 6.55337 6.55337L5.44665 5.44665ZM11.7708 1.336C12.0764 1.03037 12.0764 0.534844 11.7708 0.229219C11.4651 -0.0764063 10.9697 -0.0764063 10.6641 0.229219L11.7708 1.336ZM6.55337 5.44665C6.24773 5.14102 5.75229 5.14102 5.44665 5.44665C5.14102 5.75229 5.14102 6.24773 5.44665 6.55337L6.55337 5.44665ZM10.6641 11.7708C10.9697 12.0764 11.4651 12.0764 11.7708 11.7708C12.0764 11.4651 12.0764 10.9697 11.7708 10.6641L10.6641 11.7708ZM5.44665 6.55337C5.75229 6.859 6.24773 6.859 6.55337 6.55337C6.859 6.24773 6.859 5.75229 6.55337 5.44665L5.44665 6.55337ZM1.336 0.229219C1.03037 -0.0764063 0.534844 -0.0764063 0.229219 0.229219C-0.0764063 0.534844 -0.0764063 1.03037 0.229219 1.336L1.336 0.229219ZM1.336 11.7708L6.55337 6.55337L5.44665 5.44665L0.229219 10.6641L1.336 11.7708ZM6.55337 6.55337L11.7708 1.336L10.6641 0.229219L5.44665 5.44665L6.55337 6.55337ZM5.44665 6.55337L10.6641 11.7708L11.7708 10.6641L6.55337 5.44665L5.44665 6.55337ZM6.55337 5.44665L1.336 0.229219L0.229219 1.336L5.44665 6.55337L6.55337 5.44665Z" fill="white"/>
</svg>
