<svg width="30" height="30" viewBox="0 0 30 30" fill="none" xmlns="http://www.w3.org/2000/svg">
<mask id="path-1-inside-1_446_475" fill="white">
<path fill-rule="evenodd" clip-rule="evenodd" d="M22.5918 29.8837C19.6789 29.1539 13.7157 27.0964 8.30963 21.6903C2.90358 16.2843 0.846126 10.3211 0.116309 7.40822C-0.303098 5.73424 0.452154 4.11889 1.73277 3.20416L5.09 0.806134C7.05435 -0.59696 9.787 -0.120841 11.1611 1.86392L13.2746 4.9169C14.1718 6.21284 13.8624 7.98904 12.5797 8.90519L10.8944 10.109C11.1495 11.0846 11.9428 13.0882 14.4273 15.5727C16.9118 18.0572 18.9154 18.8504 19.891 19.1055L21.0948 17.4201C22.011 16.1377 23.7872 15.8281 25.0831 16.7253L28.1361 18.8389C30.1208 20.2131 30.597 22.9456 29.1938 24.9099L26.7958 28.2672C25.8811 29.5478 24.2658 30.3031 22.5918 29.8837ZM10.3489 19.6511C15.2651 24.5673 20.6903 26.4342 23.2926 27.0863C23.673 27.1814 24.1328 27.0336 24.4491 26.591L26.8472 23.2337C27.3148 22.579 27.1562 21.6681 26.4945 21.21L23.4416 19.0964L22.1497 20.9051C21.6218 21.6442 20.6455 22.2239 19.5086 21.9786C18.0897 21.6725 15.4668 20.6906 12.3881 17.6119C9.30939 14.5332 8.32755 11.9103 8.0214 10.4914C7.77612 9.35457 8.35584 8.37824 9.09496 7.85029L10.9035 6.55845L8.78993 3.50547C8.33191 2.84387 7.42102 2.68517 6.76625 3.15287L3.40901 5.5509C2.96628 5.86713 2.81846 6.32697 2.91376 6.70733C3.56578 9.3097 5.43268 14.7349 10.3489 19.6511Z"/>
</mask>
<path fill-rule="evenodd" clip-rule="evenodd" d="M22.5918 29.8837C19.6789 29.1539 13.7157 27.0964 8.30963 21.6903C2.90358 16.2843 0.846126 10.3211 0.116309 7.40822C-0.303098 5.73424 0.452154 4.11889 1.73277 3.20416L5.09 0.806134C7.05435 -0.59696 9.787 -0.120841 11.1611 1.86392L13.2746 4.9169C14.1718 6.21284 13.8624 7.98904 12.5797 8.90519L10.8944 10.109C11.1495 11.0846 11.9428 13.0882 14.4273 15.5727C16.9118 18.0572 18.9154 18.8504 19.891 19.1055L21.0948 17.4201C22.011 16.1377 23.7872 15.8281 25.0831 16.7253L28.1361 18.8389C30.1208 20.2131 30.597 22.9456 29.1938 24.9099L26.7958 28.2672C25.8811 29.5478 24.2658 30.3031 22.5918 29.8837ZM10.3489 19.6511C15.2651 24.5673 20.6903 26.4342 23.2926 27.0863C23.673 27.1814 24.1328 27.0336 24.4491 26.591L26.8472 23.2337C27.3148 22.579 27.1562 21.6681 26.4945 21.21L23.4416 19.0964L22.1497 20.9051C21.6218 21.6442 20.6455 22.2239 19.5086 21.9786C18.0897 21.6725 15.4668 20.6906 12.3881 17.6119C9.30939 14.5332 8.32755 11.9103 8.0214 10.4914C7.77612 9.35457 8.35584 8.37824 9.09496 7.85029L10.9035 6.55845L8.78993 3.50547C8.33191 2.84387 7.42102 2.68517 6.76625 3.15287L3.40901 5.5509C2.96628 5.86713 2.81846 6.32697 2.91376 6.70733C3.56578 9.3097 5.43268 14.7349 10.3489 19.6511Z" fill="white"/>
<path d="M22.5918 29.8837L29.8838 0.783377L29.8825 0.783039L22.5918 29.8837ZM8.30963 21.6903L-12.9035 42.9036L-12.9035 42.9037L8.30963 21.6903ZM0.116309 7.40822L-28.9842 14.6992L-28.9842 14.6993L0.116309 7.40822ZM1.73277 3.20416L-15.7044 -21.2078L-15.7045 -21.2078L1.73277 3.20416ZM5.09 0.806134L-12.347 -23.6059L-12.3472 -23.6059L5.09 0.806134ZM11.1611 1.86392L35.827 -15.2122L35.8268 -15.2124L11.1611 1.86392ZM13.2746 4.9169L-11.3913 21.993L-11.3912 21.9931L13.2746 4.9169ZM12.5797 8.90519L-4.85726 -15.5069L-4.85753 -15.5067L12.5797 8.90519ZM10.8944 10.109L-6.54283 -14.3029L-23.3562 -2.29322L-18.1301 17.697L10.8944 10.109ZM14.4273 15.5727L35.6405 -5.6405L35.6405 -5.64057L14.4273 15.5727ZM19.891 19.1055L12.3025 48.1299L32.2938 53.3567L44.3036 36.5419L19.891 19.1055ZM21.0948 17.4201L-3.31573 -0.0190932L-3.31779 -0.0162186L21.0948 17.4201ZM25.0831 16.7253L8.00637 41.3907L8.00699 41.3912L25.0831 16.7253ZM28.1361 18.8389L45.2137 -5.82599L45.2122 -5.82703L28.1361 18.8389ZM29.1938 24.9099L4.78206 7.47244L4.78147 7.47327L29.1938 24.9099ZM26.7958 28.2672L51.2073 45.7052L51.2082 45.7039L26.7958 28.2672ZM10.3489 19.6511L-10.8644 40.8643L-10.8642 40.8644L10.3489 19.6511ZM23.2926 27.0863L16.001 56.1867L16.0114 56.1893L23.2926 27.0863ZM24.4491 26.591L48.8605 44.0289L48.8609 44.0283L24.4491 26.591ZM26.8472 23.2337L2.43554 5.796L2.43532 5.79631L26.8472 23.2337ZM26.4945 21.21L9.41782 45.8756L9.41819 45.8758L26.4945 21.21ZM23.4416 19.0964L40.5182 -5.56911L16.2121 -22.397L-0.970681 1.6596L23.4416 19.0964ZM22.1497 20.9051L-2.26253 3.46825L-2.26325 3.46925L22.1497 20.9051ZM19.5086 21.9786L25.8356 -7.34664L25.8356 -7.34665L19.5086 21.9786ZM8.0214 10.4914L-21.3038 16.8184L-21.3037 16.819L8.0214 10.4914ZM9.09496 7.85029L26.5321 32.2623L26.5322 32.2622L9.09496 7.85029ZM10.9035 6.55845L28.3408 30.9704L52.3963 13.7878L35.5693 -10.5179L10.9035 6.55845ZM8.78993 3.50547L-15.8759 20.5816L-15.8758 20.5818L8.78993 3.50547ZM6.76625 3.15287L-10.6709 -21.2591L-10.6709 -21.2591L6.76625 3.15287ZM3.40901 5.5509L20.8459 29.9631L20.8462 29.9629L3.40901 5.5509ZM2.91376 6.70733L-26.1867 13.9985L-26.1867 13.9985L2.91376 6.70733ZM29.8825 0.783039C30.0324 0.820603 30.0862 0.841097 30.0734 0.836486C30.0605 0.831824 30.0091 0.812195 29.9374 0.775895C29.7948 0.703669 29.6554 0.609742 29.5227 0.477015L-12.9035 42.9037C-2.40092 53.4061 9.15875 57.4454 15.3012 58.9843L29.8825 0.783039ZM29.5228 0.4771C29.3902 0.344494 29.2963 0.20524 29.2241 0.0626258C29.1878 -0.00905201 29.1682 -0.0604234 29.1635 -0.0734015C29.1589 -0.0862309 29.1793 -0.0325616 29.2168 0.117132L-28.9842 14.6993C-27.4454 20.841 -23.4063 32.4009 -12.9035 42.9036L29.5228 0.4771ZM29.2168 0.117225C32.1892 11.9808 26.5309 22.3583 19.17 27.6161L-15.7045 -21.2078C-25.6266 -14.1205 -32.7954 -0.512341 -28.9842 14.6992L29.2168 0.117225ZM19.1699 27.6162L22.5272 25.2181L-12.3472 -23.6059L-15.7044 -21.2078L19.1699 27.6162ZM22.5271 25.2182C10.8686 33.5456 -5.34958 30.7198 -13.5047 18.9402L35.8268 -15.2124C24.9236 -30.9615 3.24006 -34.7395 -12.347 -23.6059L22.5271 25.2182ZM-13.5049 18.94L-11.3913 21.993L37.9405 -12.1592L35.827 -15.2122L-13.5049 18.94ZM-11.3912 21.9931C-19.8267 9.80845 -16.9176 -6.89246 -4.85726 -15.5069L30.0168 33.3173C44.6424 22.8705 48.1703 2.61723 37.9404 -12.1593L-11.3912 21.9931ZM-4.85753 -15.5067L-6.54283 -14.3029L28.3317 34.5209L30.017 33.3171L-4.85753 -15.5067ZM-18.1301 17.697C-16.4801 24.008 -12.9037 30.6681 -6.78581 36.786L35.6405 -5.64057C36.7893 -4.4917 38.7792 -1.83874 39.9189 2.52094L-18.1301 17.697ZM-6.78587 36.7859C-0.66745 42.9043 5.99272 46.4801 12.3025 48.1299L27.4796 -9.91887C31.8381 -8.77932 34.4911 -6.78994 35.6405 -5.6405L-6.78587 36.7859ZM44.3036 36.5419L45.5073 34.8565L-3.31779 -0.0162186L-4.52153 1.66914L44.3036 36.5419ZM45.5053 34.8594C36.8928 46.9147 20.1939 49.8286 8.00637 41.3907L42.1598 -7.94021C27.3805 -18.1724 7.12921 -14.6394 -3.31573 -0.0190931L45.5053 34.8594ZM8.00699 41.3912L11.06 43.5048L45.2122 -5.82703L42.1592 -7.94064L8.00699 41.3912ZM11.0585 43.5037C-0.719015 35.3491 -3.54615 19.1316 4.78206 7.47244L53.6056 42.3474C64.7401 26.7595 60.9607 5.07698 45.2137 -5.82599L11.0585 43.5037ZM4.78147 7.47327L2.3835 10.8306L51.2082 45.7039L53.6062 42.3466L4.78147 7.47327ZM2.3844 10.8293C7.64128 3.47018 18.0185 -2.18985 29.8838 0.783377L15.2998 58.984C30.5131 62.7961 44.1209 55.6255 51.2073 45.7052L2.3844 10.8293ZM-10.8642 40.8644C-0.85275 50.8758 10.1677 54.725 16.001 56.1867L30.5842 -2.01411C30.8178 -1.95558 30.965 -1.9076 31.0524 -1.87603C31.14 -1.8444 31.1984 -1.81812 31.2417 -1.79619C31.3275 -1.75274 31.4464 -1.67775 31.562 -1.56218L-10.8642 40.8644ZM16.0114 56.1893C29.5468 59.5757 42.1251 53.4578 48.8605 44.0289L0.0375989 9.15306C6.14054 0.60951 17.7992 -5.2128 30.5739 -2.0167L16.0114 56.1893ZM48.8609 44.0283L51.259 40.671L2.43532 5.79631L0.0372056 9.15361L48.8609 44.0283ZM51.2588 40.6713C61.458 26.3931 57.9962 6.53111 43.5708 -3.45575L9.41819 45.8758C-3.68385 36.8052 -6.82843 18.765 2.43554 5.796L51.2588 40.6713ZM43.5711 -3.4555L40.5182 -5.56911L6.36491 43.7619L9.41782 45.8755L43.5711 -3.4555ZM-0.970681 1.6596L-2.26253 3.46825L46.562 38.3419L47.8538 36.5332L-0.970681 1.6596ZM-2.26325 3.46925C2.43314 -3.10645 12.6101 -10.2001 25.8356 -7.34664L13.1816 51.3038C28.6809 54.6478 40.8105 46.3949 46.5627 38.3409L-2.26325 3.46925ZM25.8356 -7.34665C30.1803 -6.40928 32.6923 -4.51033 33.6013 -3.60129L-8.82508 38.8251C-1.75861 45.8916 5.99921 49.7542 13.1817 51.3038L25.8356 -7.34665ZM33.6013 -3.60129C34.5103 -2.69225 36.4091 -0.180423 37.3465 4.16385L-21.3037 16.819C-19.754 24.001 -15.8916 31.7587 -8.82508 38.8251L33.6013 -3.60129ZM37.3466 4.16438C40.2004 17.3913 33.1051 27.5673 26.5321 32.2623L-8.34222 -16.5617C-16.3934 -10.8108 -24.6481 1.31781 -21.3038 16.8184L37.3466 4.16438ZM26.5322 32.2622L28.3408 30.9704L-6.53369 -17.8535L-8.34226 -16.5617L26.5322 32.2622ZM35.5693 -10.5179L33.4557 -13.5709L-15.8758 20.5818L-13.7622 23.6348L35.5693 -10.5179ZM33.4558 -13.5707C23.4686 -27.9969 3.60665 -31.4574 -10.6709 -21.2591L24.2034 27.5649C11.2354 36.8277 -6.80477 33.6846 -15.8759 20.5816L33.4558 -13.5707ZM-10.6709 -21.2591L-14.0282 -18.8611L20.8462 29.9629L24.2034 27.5649L-10.6709 -21.2591ZM-14.0279 -18.8613C-23.4551 -12.1277 -29.5803 0.454026 -26.1867 13.9985L32.0143 -0.5838C35.2172 12.1999 29.3876 23.862 20.8459 29.9631L-14.0279 -18.8613ZM-26.1867 13.9985C-24.7251 19.8322 -20.8758 30.8528 -10.8644 40.8643L31.5621 -1.56202C31.6778 -1.44638 31.7528 -1.32748 31.7963 -1.24162C31.8182 -1.19831 31.8445 -1.13987 31.8761 -1.05223C31.9077 -0.964766 31.9557 -0.817519 32.0143 -0.583806L-26.1867 13.9985Z" fill="white" mask="url(#path-1-inside-1_446_475)"/>
</svg>
