<svg width="27" height="26" viewBox="0 0 27 26" fill="none" xmlns="http://www.w3.org/2000/svg">
<path d="M9.74851 20.5832H9.19585C4.77459 20.5832 2.56396 19.4998 2.56396 14.0832V8.6665C2.56396 4.33317 4.77459 2.1665 9.19585 2.1665H18.0384C22.4596 2.1665 24.6702 4.33317 24.6702 8.6665V14.0832C24.6702 18.4165 22.4596 20.5832 18.0384 20.5832H17.4857C17.1431 20.5832 16.8115 20.7457 16.6015 21.0165L14.9435 23.1832C14.214 24.1365 13.0202 24.1365 12.2907 23.1832L10.6328 21.0165C10.4559 20.7782 10.0469 20.5832 9.74851 20.5832Z" fill="#8E8E8F" stroke="#8E8E8F" stroke-width="1.5" stroke-miterlimit="10" stroke-linecap="round" stroke-linejoin="round"/>
<path d="M8.09082 8.6665H19.144" stroke="white" stroke-width="1.5" stroke-linecap="round" stroke-linejoin="round"/>
<path d="M8.09082 14.0835H14.7227" stroke="white" stroke-width="1.5" stroke-linecap="round" stroke-linejoin="round"/>
</svg>
