<svg width="24" height="24" viewBox="0 0 24 24" fill="none" xmlns="http://www.w3.org/2000/svg">
<path d="M12 22.5C18.0751 22.5 23 17.799 23 12C23 6.20101 18.0751 1.5 12 1.5C5.92487 1.5 1 6.20101 1 12C1 17.799 5.92487 22.5 12 22.5Z" stroke="white" stroke-width="2" stroke-linecap="round" stroke-linejoin="round"/>
<path d="M15.0557 8.59706L14.8801 8.45732C14.4407 8.10787 13.887 7.9165 13.3152 7.9165H10.4724C9.29111 7.9165 8.3335 8.83059 8.3335 9.95817C8.3335 11.0858 9.29111 11.9998 10.4724 11.9998H13.5279C14.7092 11.9998 15.6668 12.9139 15.6668 14.0415C15.6668 15.1691 14.7092 16.0832 13.5279 16.0832H10.0593C9.42286 16.0832 8.81156 15.8462 8.35528 15.4228L8.3335 15.4027" stroke="white" stroke-width="2" stroke-linecap="round" stroke-linejoin="round"/>
<path d="M12 7.33341V6.16675" stroke="white" stroke-width="2" stroke-linecap="round" stroke-linejoin="round"/>
<path d="M12 17.8334V16.6667" stroke="white" stroke-width="2" stroke-linecap="round" stroke-linejoin="round"/>
</svg>
