<svg width="24" height="24" viewBox="0 0 24 24" fill="none" xmlns="http://www.w3.org/2000/svg">
<circle cx="12" cy="12" r="12" fill="white"/>
<path fill-rule="evenodd" clip-rule="evenodd" d="M9.47363 6.94725C9.47363 6.59844 9.73465 6.31567 10.0566 6.31567H13.9433C14.2652 6.31567 14.5263 6.59844 14.5263 6.94725C14.5263 7.29606 14.2652 7.57883 13.9433 7.57883H10.0566C9.73465 7.57883 9.47363 7.29606 9.47363 6.94725Z" fill="#1C274C"/>
<path fill-rule="evenodd" clip-rule="evenodd" d="M10.5964 17.6841H13.4034C15.3746 17.6841 16.3602 17.6841 17.0682 17.2279C17.3746 17.0304 17.6378 16.7767 17.8426 16.4812C18.3157 15.7984 18.3157 14.848 18.3157 12.9472C18.3157 11.0464 18.3155 10.0962 17.8425 9.41344C17.6377 9.11788 17.3745 8.86411 17.068 8.66663C16.36 8.21045 15.3745 8.21045 13.4033 8.21045H10.5963C8.62509 8.21045 7.63949 8.21045 6.9315 8.66663C6.625 8.86411 6.36184 9.11788 6.15705 9.41344C5.68408 10.096 5.68408 11.046 5.68408 12.946V12.9472C5.68408 14.848 5.68408 15.7984 6.15715 16.4812C6.36194 16.7767 6.6251 17.0304 6.9316 17.2279C7.6396 17.6841 8.62519 17.6841 10.5964 17.6841ZM9.36829 12.9472C9.36829 11.5457 10.5465 10.4096 11.9999 10.4096C13.4533 10.4096 14.6315 11.5457 14.6315 12.9472C14.6315 14.3487 13.4533 15.4848 11.9999 15.4848C10.5465 15.4848 9.36829 14.3487 9.36829 12.9472ZM10.4209 12.9472C10.4209 12.1063 11.1279 11.4246 11.9999 11.4246C12.8719 11.4246 13.5788 12.1063 13.5788 12.9472C13.5788 13.7881 12.8719 14.4698 11.9999 14.4698C11.1279 14.4698 10.4209 13.7881 10.4209 12.9472ZM15.8595 10.4096C15.5689 10.4096 15.3332 10.6368 15.3332 10.9171C15.3332 11.1974 15.5689 11.4246 15.8595 11.4246H16.2104C16.5011 11.4246 16.7367 11.1974 16.7367 10.9171C16.7367 10.6368 16.5011 10.4096 16.2104 10.4096H15.8595Z" fill="#1C274C"/>
</svg>
