<svg width="33" height="33" viewBox="0 0 33 33" fill="none" xmlns="http://www.w3.org/2000/svg">
<rect y="0.987793" width="33" height="31.9939" rx="8" fill="#EAEFFE"/>
<path fill-rule="evenodd" clip-rule="evenodd" d="M21.5551 25.918C19.8073 25.4801 16.2294 24.2456 12.9858 21.002C9.74215 17.7584 8.50767 14.1805 8.06979 12.4327C7.81814 11.4283 8.27129 10.4591 9.03966 9.91029L11.054 8.47147C12.2326 7.62962 13.8722 7.91529 14.6966 9.10615L15.9648 10.9379C16.5031 11.7155 16.3174 12.7812 15.5478 13.3309L14.5367 14.0532C14.6897 14.6386 15.1657 15.8407 16.6564 17.3314C18.1471 18.8221 19.3492 19.298 19.9346 19.4511L20.6569 18.4399C21.2066 17.6704 22.2723 17.4846 23.0498 18.023L24.8817 19.2911C26.0725 20.1156 26.3582 21.7551 25.5163 22.9338L24.0775 24.9481C23.5286 25.7165 22.5595 26.1697 21.5551 25.918ZM14.2093 19.7785C17.1591 22.7282 20.4142 23.8483 21.9756 24.2396C22.2038 24.2967 22.4797 24.208 22.6694 23.9424L24.1083 21.928C24.3889 21.5352 24.2937 20.9887 23.8967 20.7138L22.0649 19.4456L21.2898 20.5308C20.9731 20.9743 20.3873 21.3221 19.7052 21.1749C18.8538 20.9913 17.2801 20.4022 15.4329 18.5549C13.5856 16.7077 12.9965 15.134 12.8128 14.2826C12.6657 13.6005 13.0135 13.0147 13.457 12.698L14.5421 11.9229L13.274 10.0911C12.9991 9.69412 12.4526 9.5989 12.0597 9.87952L10.0454 11.3183C9.77976 11.5081 9.69107 11.784 9.74825 12.0122C10.1395 13.5736 11.2596 16.8288 14.2093 19.7785Z" fill="#002D9E"/>
</svg>
