<svg width="19" height="16" viewBox="0 0 19 16" fill="none" xmlns="http://www.w3.org/2000/svg">
<path d="M18.9535 2.22541C18.8745 1.82634 18.6964 1.44916 18.4367 1.13206C18.3839 1.06549 18.3287 1.00626 18.2684 0.94618C17.8062 0.48157 17.1633 0.215088 16.5045 0.215088H2.49538C1.82923 0.215088 1.20271 0.474854 0.73124 0.94644C0.671568 1.00596 0.616238 1.06578 0.561465 1.13447C0.302813 1.45024 0.125541 1.8269 0.0484648 2.22653C0.0162539 2.38346 0 2.54608 0 2.71058V12.5497C0 12.8919 0.069543 13.2253 0.207404 13.5421C0.326711 13.8235 0.50773 14.0903 0.731092 14.3136C0.78735 14.3696 0.843236 14.4212 0.902908 14.4716C1.34948 14.8414 1.91496 15.0449 2.49538 15.0449H16.5045C17.0887 15.0449 17.6536 14.8406 18.099 14.4675C18.1585 14.4193 18.2137 14.3688 18.2689 14.3136C18.4848 14.0979 18.6564 13.8501 18.7798 13.5768L18.796 13.5378C18.9313 13.227 19 12.8947 19 12.5497V2.71058C19 2.54823 18.9843 2.38454 18.9535 2.22541ZM1.29226 1.80767C1.32755 1.75602 1.3726 1.70299 1.43008 1.64506C1.71542 1.35987 2.09382 1.20294 2.49535 1.20294H16.5045C16.9096 1.20294 17.2881 1.36013 17.5702 1.64562C17.619 1.69486 17.6655 1.74952 17.7061 1.80415L17.8132 1.94813L10.3357 8.46513C10.1052 8.66723 9.80838 8.77845 9.49989 8.77845C9.19444 8.77845 8.8979 8.66749 8.66463 8.46539L1.19455 1.94999L1.29226 1.80767ZM0.992861 12.6365C0.988816 12.6097 0.987889 12.58 0.987889 12.5497V2.91431L6.79068 7.97644L1.04645 12.9848L0.992861 12.6365ZM17.2521 13.8584C17.0275 13.988 16.7689 14.0567 16.5045 14.0567H2.49538C2.2309 14.0567 1.97236 13.988 1.74793 13.8584L1.5131 13.7223L7.44822 8.55004L8.09868 9.11581C8.48884 9.45454 8.98641 9.64128 9.49996 9.64128C10.0154 9.64128 10.5138 9.45454 10.9037 9.11581L11.5539 8.54978L17.487 13.7226L17.2521 13.8584ZM18.0119 12.5497C18.0119 12.5794 18.0113 12.6089 18.0075 12.6352L17.9561 12.9867L12.2094 7.97915L18.0119 2.91676V12.5497Z" fill="#3A81F7"/>
</svg>
