<svg width="22" height="22" viewBox="0 0 22 22" fill="none" xmlns="http://www.w3.org/2000/svg">
<path d="M3.6665 4.5835H14.6665" stroke="#0C0310" stroke-width="2" stroke-linecap="round"/>
<path d="M3.6665 11H9.1665" stroke="#0C0310" stroke-width="2" stroke-linecap="round"/>
<path d="M12.8335 11H18.3335" stroke="#0C0310" stroke-width="2" stroke-linecap="round"/>
<path d="M7.3335 17.4165H18.3335" stroke="#0C0310" stroke-width="2" stroke-linecap="round"/>
<path d="M16.4998 6.41667C17.5124 6.41667 18.3332 5.59586 18.3332 4.58333C18.3332 3.57081 17.5124 2.75 16.4998 2.75C15.4873 2.75 14.6665 3.57081 14.6665 4.58333C14.6665 5.59586 15.4873 6.41667 16.4998 6.41667Z" stroke="#0C0310" stroke-width="2" stroke-linecap="round"/>
<path d="M10.9998 12.8332C12.0124 12.8332 12.8332 12.0124 12.8332 10.9998C12.8332 9.98732 12.0124 9.1665 10.9998 9.1665C9.98732 9.1665 9.1665 9.98732 9.1665 10.9998C9.1665 12.0124 9.98732 12.8332 10.9998 12.8332Z" stroke="#0C0310" stroke-width="2" stroke-linecap="round"/>
<path d="M5.49984 19.2502C6.51236 19.2502 7.33317 18.4294 7.33317 17.4168C7.33317 16.4043 6.51236 15.5835 5.49984 15.5835C4.48732 15.5835 3.6665 16.4043 3.6665 17.4168C3.6665 18.4294 4.48732 19.2502 5.49984 19.2502Z" stroke="#0C0310" stroke-width="2" stroke-linecap="round"/>
</svg>
