<svg width="24" height="26" viewBox="0 0 24 26" fill="none" xmlns="http://www.w3.org/2000/svg">
<path fill-rule="evenodd" clip-rule="evenodd" d="M8.72856 0.000324762C8.96076 0.0064324 9.18559 0.100396 9.37171 0.269111C9.55783 0.437826 9.69595 0.672879 9.76681 0.941486L14.6844 19.6021L16.8709 11.7603C16.9456 11.492 17.0876 11.2587 17.277 11.0935C17.4665 10.9282 17.6938 10.8392 17.927 10.839H22.0919C22.3878 10.839 22.6716 10.9818 22.8808 11.2359C23.09 11.4899 23.2075 11.8345 23.2075 12.1939C23.2075 12.5532 23.09 12.8978 22.8808 13.1519C22.6716 13.406 22.3878 13.5487 22.0919 13.5487H18.7273L15.7107 24.3694C15.6353 24.6391 15.4918 24.8731 15.3006 25.0381C15.1094 25.2031 14.8803 25.2908 14.6457 25.2886C14.4112 25.2864 14.1832 25.1944 13.9941 25.0259C13.805 24.8573 13.6645 24.6206 13.5926 24.3495L8.63336 5.52807L6.47952 12.6599C6.40092 12.9205 6.25834 13.1454 6.07106 13.3044C5.88378 13.4633 5.66083 13.5486 5.43235 13.5487H1.26745C0.971577 13.5487 0.687821 13.406 0.478606 13.1519C0.269391 12.8978 0.151855 12.5532 0.151855 12.1939C0.151855 11.8345 0.269391 11.4899 0.478606 11.2359C0.687821 10.9818 0.971577 10.839 1.26745 10.839H4.65292L7.65759 0.889099C7.82121 0.345357 8.25257 -0.0123204 8.72856 0.000324762Z" fill="#8E8E8F"/>
</svg>
