<svg width="22" height="17" viewBox="0 0 22 17" fill="none" xmlns="http://www.w3.org/2000/svg">
<path d="M0 2.40625C0 1.078 1.078 0 2.40625 0H19.5938C20.922 0 22 1.078 22 2.40625V14.0938C22 14.7319 21.7465 15.344 21.2952 15.7952C20.844 16.2465 20.2319 16.5 19.5938 16.5H2.40625C1.76807 16.5 1.15603 16.2465 0.704774 15.7952C0.253515 15.344 0 14.7319 0 14.0938L0 2.40625ZM2.40625 2.0625C2.31508 2.0625 2.22765 2.09872 2.16318 2.16318C2.09872 2.22765 2.0625 2.31508 2.0625 2.40625V14.0938C2.0625 14.2835 2.2165 14.4375 2.40625 14.4375H19.5938C19.6849 14.4375 19.7724 14.4013 19.8368 14.3368C19.9013 14.2724 19.9375 14.1849 19.9375 14.0938V2.40625C19.9375 2.31508 19.9013 2.22765 19.8368 2.16318C19.7724 2.09872 19.6849 2.0625 19.5938 2.0625H2.40625Z" fill="#3A81F7"/>
<path d="M8.25 11.7686V4.73274C8.24979 4.67176 8.26581 4.61182 8.29641 4.55907C8.32701 4.50632 8.3711 4.46267 8.42414 4.43258C8.47718 4.40249 8.53727 4.38705 8.59825 4.38785C8.65922 4.38864 8.71889 4.40565 8.77113 4.43712L14.6341 7.95574C14.6848 7.98634 14.7267 8.02951 14.7558 8.08106C14.7849 8.13261 14.8002 8.1908 14.8002 8.24999C14.8002 8.30918 14.7849 8.36737 14.7558 8.41892C14.7267 8.47047 14.6848 8.51364 14.6341 8.54424L8.77113 12.0629C8.71899 12.0943 8.65945 12.1113 8.59859 12.1121C8.53773 12.113 8.47774 12.0977 8.42474 12.0677C8.37174 12.0378 8.32763 11.9944 8.29693 11.9418C8.26623 11.8892 8.25004 11.8295 8.25 11.7686Z" fill="#3A81F7"/>
</svg>
