<svg width="21" height="20" viewBox="0 0 21 20" fill="none" xmlns="http://www.w3.org/2000/svg">
<path d="M17.9531 10C17.9531 13.866 14.8191 17 10.9531 17M17.9531 10C17.9531 6.13401 14.8191 3 10.9531 3M17.9531 10H19.9531M10.9531 17C7.08714 17 3.95312 13.866 3.95312 10M10.9531 17V19M10.9531 3C7.08714 3 3.95312 6.13401 3.95312 10M10.9531 3V1M3.95312 10H1.95312M13.9531 10C13.9531 11.6569 12.61 13 10.9531 13C9.29622 13 7.95312 11.6569 7.95312 10C7.95312 8.3431 9.29622 7 10.9531 7C12.61 7 13.9531 8.3431 13.9531 10Z" stroke="#3A81F7" stroke-width="2" stroke-linecap="round" stroke-linejoin="round"/>
</svg>
