<svg width="18" height="20" viewBox="0 0 18 20" fill="none" xmlns="http://www.w3.org/2000/svg">
<path d="M9 12.3898V14.3898M4 7.91857C4.47142 7.88977 5.05259 7.88977 5.8 7.88977H12.2C12.9474 7.88977 13.5286 7.88977 14 7.91857M4 7.91857C3.41168 7.95447 2.99429 8.03527 2.63803 8.21677C2.07354 8.50437 1.6146 8.96327 1.32698 9.52777C1 10.1696 1 11.0096 1 12.6898V14.0898C1 15.77 1 16.61 1.32698 17.2518C1.6146 17.8163 2.07354 18.2752 2.63803 18.5628C3.27976 18.8898 4.11984 18.8898 5.8 18.8898H12.2C13.8802 18.8898 14.7202 18.8898 15.362 18.5628C15.9265 18.2752 16.3854 17.8163 16.673 17.2518C17 16.61 17 15.77 17 14.0898V12.6898C17 11.0096 17 10.1696 16.673 9.52777C16.3854 8.96327 15.9265 8.50437 15.362 8.21677C15.0057 8.03527 14.5883 7.95447 14 7.91857M4 7.91857V5.88977C4 3.12835 6.23858 0.889771 9 0.889771C11.7614 0.889771 14 3.12835 14 5.88977V7.91857" stroke="#3A81F7" stroke-width="1.5" stroke-linecap="round" stroke-linejoin="round"/>
</svg>
