<svg width="19" height="18" viewBox="0 0 19 18" fill="none" xmlns="http://www.w3.org/2000/svg">
<path d="M9.95316 0C6.74242 0 4.17383 2.57143 4.17383 5.72143C4.17383 10.4786 9.31101 14.5286 9.56787 14.6571C9.6963 14.7214 9.82473 14.7857 9.95316 14.7857C10.0816 14.7857 10.21 14.7214 10.3384 14.6571C10.5953 14.4643 15.7325 10.4786 15.7325 5.72143C15.7325 2.57143 13.1639 0 9.95316 0ZM13.0355 6.17143C12.907 6.36429 12.7144 6.42857 12.5217 6.42857V8.35714C12.5217 8.74286 12.2649 9 11.8796 9H8.02671C7.64143 9 7.38457 8.74286 7.38457 8.35714V6.42857C7.19192 6.42857 6.99928 6.36429 6.87085 6.17143C6.6782 5.91429 6.74242 5.46429 6.99928 5.27143L9.56787 3.34286C9.82473 3.15 10.0816 3.15 10.3384 3.34286L12.907 5.27143C13.1639 5.46429 13.2281 5.91429 13.0355 6.17143Z" fill="#3A81F7"/>
<path d="M18.879 17.0999L16.3104 11.957C16.182 11.6999 15.9893 11.5713 15.7325 11.5713H14.9619C13.4207 13.8856 11.4943 15.4284 11.109 15.6856C10.7879 15.9427 10.4026 16.0713 9.95313 16.0713C9.50362 16.0713 9.11833 15.9427 8.79726 15.6856C8.47619 15.4284 6.48553 13.8856 4.94437 11.5713H4.1738C3.91694 11.5713 3.72429 11.6999 3.59586 11.957L1.02727 17.0999C0.898844 17.2927 0.963059 17.5499 1.02727 17.7427C1.09149 17.9356 1.41256 17.9999 1.60521 17.9999H18.301C18.4937 17.9999 18.7505 17.8713 18.879 17.6784C19.0074 17.4856 18.9432 17.2927 18.879 17.0999Z" fill="#3A81F7"/>
</svg>
