<svg width="17" height="20" viewBox="0 0 17 20" fill="none" xmlns="http://www.w3.org/2000/svg">
<path d="M16.6085 12.3657L15.5035 10.7887C15.2714 10.4372 15.0614 9.77217 15.0614 9.38266V6.97912C15.0614 4.74658 13.5364 2.81804 11.3373 1.91553C10.7627 1.04151 9.70182 0.5 8.48624 0.5C7.28171 0.5 6.19879 1.06051 5.62415 1.94403C3.46926 2.86554 1.97741 4.77508 1.97741 6.97912V9.38266C1.97741 9.77217 1.76745 10.4372 1.53538 10.7792L0.41926 12.3657C-0.0227692 13.0022 -0.122225 13.7052 0.154043 14.3512C0.41926 14.9878 1.04915 15.4818 1.8669 15.7193C4.01074 16.3463 6.26509 16.6503 8.5194 16.6503C10.7737 16.6503 13.0281 16.3463 15.1719 15.7288C15.9455 15.5103 16.5422 15.0068 16.8295 14.3512C17.1169 13.6957 17.0395 12.9737 16.6085 12.3657Z" fill="#3A81F7"/>
<path d="M11.6245 17.6091C11.1604 18.7111 9.93377 19.4996 8.49717 19.4996C7.62417 19.4996 6.76221 19.1956 6.15441 18.6541C5.80079 18.3691 5.53557 17.9891 5.38086 17.5996C5.52452 17.6186 5.66818 17.6281 5.82289 17.6471C6.07705 17.6756 6.34228 17.7041 6.6075 17.7231C7.23739 17.7706 7.87833 17.7991 8.51928 17.7991C9.14917 17.7991 9.77906 17.7706 10.3979 17.7231C10.63 17.7041 10.862 17.6946 11.083 17.6661C11.2599 17.6471 11.4367 17.6281 11.6245 17.6091Z" fill="#3A81F7"/>
<circle cx="11.5" cy="2.5" r="2.5" fill="#D44E4E"/>
<circle cx="11.5" cy="2.5" r="1.875" fill="#D44E4E"/>
</svg>
