<svg width="21" height="26" viewBox="0 0 21 26" fill="none" xmlns="http://www.w3.org/2000/svg">
<path d="M10.5 10.625C13.1234 10.625 15.25 8.49835 15.25 5.875C15.25 3.25165 13.1234 1.125 10.5 1.125C7.87665 1.125 5.75 3.25165 5.75 5.875C5.75 8.49835 7.87665 10.625 10.5 10.625Z" stroke="white" stroke-width="2"/>
<path d="M19.997 20.125C20 19.93 20 19.7319 20 19.5312C20 16.58 15.7467 14.1875 10.5 14.1875C5.25329 14.1875 1 16.58 1 19.5312C1 22.4825 1 24.875 10.5 24.875C13.1493 24.875 15.0598 24.6889 16.4375 24.3565" stroke="white" stroke-width="2" stroke-linecap="round"/>
</svg>
