<svg width="15" height="18" viewBox="0 0 15 18" fill="none" xmlns="http://www.w3.org/2000/svg">
<path d="M7.5 7.00598C9.29493 7.00598 10.75 5.55091 10.75 3.75598C10.75 1.96106 9.29493 0.505981 7.5 0.505981C5.70507 0.505981 4.25 1.96106 4.25 3.75598C4.25 5.55091 5.70507 7.00598 7.5 7.00598Z" stroke="#3A81F7"/>
<path d="M13.998 13.506C14 13.3726 14 13.237 14 13.0997C14 11.0804 11.0899 9.44348 7.5 9.44348C3.91015 9.44348 1 11.0804 1 13.0997C1 15.119 1 16.756 7.5 16.756C9.31269 16.756 10.6198 16.6287 11.5625 16.4012" stroke="#3A81F7" stroke-linecap="round"/>
</svg>
