<svg width="18" height="19" viewBox="0 0 18 19" fill="none" xmlns="http://www.w3.org/2000/svg">
<path fill-rule="evenodd" clip-rule="evenodd" d="M13.5551 18.0108C11.8073 17.5729 8.22942 16.3384 4.98577 13.0948C1.74215 9.85115 0.507675 6.27322 0.0697852 4.5255C-0.181859 3.52111 0.271292 2.5519 1.03966 2.00306L3.054 0.564247C4.23261 -0.277609 5.87219 0.0080618 6.69663 1.19892L7.96477 3.03071C8.50308 3.80827 8.31741 4.87399 7.54784 5.42368L6.53666 6.14596C6.6897 6.73134 7.16569 7.9335 8.65639 9.42419C10.1471 10.9149 11.3492 11.3908 11.9346 11.5439L12.6569 10.5326C13.2066 9.76317 14.2723 9.57741 15.0498 10.1157L16.8817 11.3839C18.0725 12.2084 18.3582 13.8479 17.5163 15.0265L16.0775 17.0409C15.5286 17.8093 14.5595 18.2624 13.5551 18.0108ZM6.20931 11.8712C9.15905 14.821 12.4142 15.9411 13.9756 16.3323C14.2038 16.3894 14.4797 16.3008 14.6694 16.0351L16.1083 14.0208C16.3889 13.628 16.2937 13.0814 15.8967 12.8066L14.0649 11.5384L13.2898 12.6236C12.9731 13.0671 12.3873 13.4149 11.7052 13.2677C10.8538 13.084 9.28009 12.4949 7.43286 10.6477C5.58563 8.80049 4.99653 7.22674 4.81283 6.37541C4.66567 5.69331 5.0135 5.10751 5.45697 4.79074L6.54211 4.01564L5.27395 2.18385C4.99914 1.78689 4.45261 1.69167 4.05974 1.97229L2.04541 3.4111C1.77976 3.60085 1.69107 3.87675 1.74825 4.10496C2.13947 5.66638 3.25961 8.92153 6.20931 11.8712Z" fill="#3A81F7"/>
</svg>
