<svg width="33" height="32" viewBox="0 0 33 32" fill="none" xmlns="http://www.w3.org/2000/svg">
<path d="M16.72 14.431C16.5825 14.4177 16.4175 14.4177 16.2663 14.431C12.9938 14.3248 10.395 11.736 10.395 8.54976C10.395 5.29717 13.1175 2.65527 16.5 2.65527C19.8688 2.65527 22.605 5.29717 22.605 8.54976C22.5913 11.736 19.9925 14.3248 16.72 14.431Z" stroke="#8E8E8F" stroke-width="1.5" stroke-linecap="round" stroke-linejoin="round"/>
<path d="M9.84523 19.3294C6.51773 21.4801 6.51773 24.985 9.84523 27.1224C13.6265 29.5651 19.8277 29.5651 23.609 27.1224C26.9365 24.9717 26.9365 21.4669 23.609 19.3294C19.8415 16.9 13.6402 16.9 9.84523 19.3294Z" stroke="#8E8E8F" stroke-width="1.5" stroke-linecap="round" stroke-linejoin="round"/>
</svg>
