<svg width="18" height="18" viewBox="0 0 18 18" fill="none" xmlns="http://www.w3.org/2000/svg">
<path d="M18 9C18 13.9705 13.9705 18 9 18C4.02944 18 0 13.9705 0 9C0 4.02944 4.02944 0 9 0C13.9705 0 18 4.02944 18 9ZM1.64195 9C1.64195 13.0637 4.93626 16.3581 9 16.3581C13.0637 16.3581 16.3581 13.0637 16.3581 9C16.3581 4.93626 13.0637 1.64195 9 1.64195C4.93626 1.64195 1.64195 4.93626 1.64195 9Z" fill="#3A81F7"/>
<path d="M8.99982 3.27295C8.54794 3.27295 8.18164 3.63926 8.18164 4.09113V9.38207C8.18164 9.38207 8.18164 9.59537 8.2853 9.75581C8.35469 9.89188 8.46285 10.0101 8.60497 10.0922L12.3848 12.2745C12.7761 12.5004 13.2765 12.3663 13.5024 11.975C13.7283 11.5836 13.5943 11.0832 13.203 10.8573L9.818 8.90302V4.09113C9.818 3.63927 9.4517 3.27295 8.99982 3.27295Z" fill="#3A81F7"/>
</svg>
