<svg width="20" height="18" viewBox="0 0 20 18" fill="none" xmlns="http://www.w3.org/2000/svg">
<path d="M17.5 1.92857C17.8438 1.92857 18.125 2.21786 18.125 2.57143V15.4205L17.9297 15.1594L12.6172 8.08795C12.4414 7.85089 12.1641 7.71429 11.875 7.71429C11.5859 7.71429 11.3125 7.85089 11.1328 8.08795L7.89062 12.4031L6.69922 10.6875C6.52344 10.4344 6.24219 10.2857 5.9375 10.2857C5.63281 10.2857 5.35156 10.4344 5.17578 10.6915L2.05078 15.1915L1.875 15.4406V2.57143C1.875 2.21786 2.15625 1.92857 2.5 1.92857H17.5ZM2.5 0C1.12109 0 0 1.15313 0 2.57143V15.4286C0 16.8469 1.12109 18 2.5 18H17.5C18.8789 18 20 16.8469 20 15.4286V2.57143C20 1.15313 18.8789 0 17.5 0H2.5ZM5.625 7.71429C5.87123 7.71429 6.11505 7.6644 6.34253 7.56748C6.57002 7.47056 6.77672 7.3285 6.95083 7.14942C7.12494 6.97034 7.26305 6.75773 7.35727 6.52375C7.4515 6.28976 7.5 6.03898 7.5 5.78571C7.5 5.53245 7.4515 5.28167 7.35727 5.04768C7.26305 4.8137 7.12494 4.60109 6.95083 4.42201C6.77672 4.24292 6.57002 4.10087 6.34253 4.00395C6.11505 3.90703 5.87123 3.85714 5.625 3.85714C5.37877 3.85714 5.13495 3.90703 4.90747 4.00395C4.67998 4.10087 4.47328 4.24292 4.29917 4.42201C4.12506 4.60109 3.98695 4.8137 3.89273 5.04768C3.7985 5.28167 3.75 5.53245 3.75 5.78571C3.75 6.03898 3.7985 6.28976 3.89273 6.52375C3.98695 6.75773 4.12506 6.97034 4.29917 7.14942C4.47328 7.3285 4.67998 7.47056 4.90747 7.56748C5.13495 7.6644 5.37877 7.71429 5.625 7.71429Z" fill="#3A81F7"/>
</svg>
